<?xml version="1.0" standalone="no"?>
<!DOCTYPE svg PUBLIC "-//W3C//DTD SVG 20010904//EN"
 "http://www.w3.org/TR/2001/REC-SVG-20010904/DTD/svg10.dtd">
<svg version="1.0" xmlns="http://www.w3.org/2000/svg"
 width="768.000000pt" height="768.000000pt" viewBox="0 0 768.000000 768.000000"
 preserveAspectRatio="xMidYMid meet">
<metadata>
Created by potrace 1.16, written by Peter Selinger 2001-2019
</metadata>
<g transform="translate(0.000000,768.000000) scale(0.100000,-0.100000)"
fill="#000000" stroke="none">
<path d="M2500 6833 c-195 -4 -469 -23 -557 -39 -189 -32 -402 -124 -565 -242
-313 -227 -494 -589 -530 -1055 -17 -230 -18 -3135 0 -3317 39 -406 154 -673
401 -932 54 -57 96 -109 93 -116 -2 -9 3 -12 14 -10 13 2 18 -2 16 -15 -2 -9
1 -17 6 -17 6 0 13 -7 16 -16 3 -8 2 -12 -4 -9 -16 10 -11 -22 6 -36 8 -7 13
-20 11 -29 -2 -9 4 -28 15 -41 l19 -24 -12 25 c-15 32 -7 24 25 -22 22 -33 23
-38 8 -50 -10 -8 -13 -9 -9 -1 4 6 3 14 -2 17 -18 11 -5 -24 14 -38 12 -8 16
-19 12 -30 -5 -13 -1 -19 13 -23 22 -6 27 -28 8 -36 -8 -4 -4 -9 10 -13 18 -5
20 -9 10 -15 -10 -7 -10 -9 0 -9 6 0 12 -8 12 -17 0 -12 -3 -14 -8 -7 -5 9
-10 9 -18 0 -9 -9 -4 -23 18 -55 27 -40 28 -45 13 -61 -14 -15 -14 -18 -1 -23
9 -4 22 1 31 9 13 14 16 14 21 -3 3 -10 10 -26 15 -36 5 -10 7 -23 3 -29 -4
-5 0 -14 7 -19 8 -5 17 -3 21 4 5 8 8 6 8 -5 0 -10 -6 -18 -12 -18 -7 0 -1 -8
15 -18 15 -10 24 -22 20 -26 -5 -5 3 -5 17 -1 28 8 25 8 59 6 35 -1 19 -12
-19 -13 -24 -1 -28 -3 -16 -10 9 -5 21 -6 26 -3 6 3 10 2 10 -4 0 -5 10 -8 22
-6 12 3 25 0 29 -6 6 -11 29 -17 66 -18 17 -1 20 -6 15 -23 -4 -16 -2 -20 10
-16 8 4 20 -2 27 -14 8 -13 18 -17 32 -13 11 4 26 1 34 -5 12 -10 18 -10 30 0
14 12 20 7 15 -15 -1 -5 1 -7 5 -3 4 3 20 2 36 -2 23 -7 31 -5 36 5 4 12 10
11 34 -6 26 -18 33 -18 30 3 -2 14 61 -15 72 -33 7 -11 15 -15 22 -10 5 5 29
12 53 16 l42 7 -10 -28 c-11 -28 -11 -28 9 -10 11 10 25 15 30 11 6 -3 11 0
11 7 0 10 2 10 9 -1 5 -8 16 -11 26 -7 9 3 23 -1 33 -10 10 -11 17 -13 20 -5
5 15 18 14 36 -5 15 -14 17 -14 22 1 5 12 9 13 20 4 10 -8 14 -8 14 -1 0 6 9
16 20 22 16 8 18 8 14 -4 -6 -17 12 -31 21 -16 4 6 16 4 33 -6 25 -15 25 -15
8 0 -13 11 -15 16 -6 16 7 0 21 -7 31 -16 16 -15 45 -11 35 4 -2 4 18 7 44 7
37 0 46 -3 38 -12 -5 -7 -8 -18 -5 -25 4 -9 6 -7 6 4 1 23 39 33 68 17 21 -12
26 -11 34 3 5 10 16 15 24 12 20 -8 19 -19 -2 -40 -16 -16 -16 -16 7 -9 14 4
32 14 42 22 11 10 18 11 23 4 3 -6 15 -11 26 -11 11 0 17 -4 14 -10 -4 -7 3
-7 20 0 18 7 31 6 45 -2 15 -10 22 -10 32 0 14 14 32 16 23 2 -4 -6 5 -10 19
-10 14 0 26 5 26 10 0 6 10 4 23 -4 15 -10 27 -12 37 -6 12 8 13 10 1 10 -8 0
-11 3 -8 6 4 4 13 1 21 -5 8 -7 33 -11 55 -10 22 2 43 0 46 -3 4 -3 20 -2 36
2 17 5 31 5 35 -1 3 -6 15 -4 29 5 14 9 25 11 27 5 2 -5 20 -14 41 -18 25 -6
35 -6 30 2 -4 6 0 8 10 4 9 -3 19 -3 21 2 7 11 66 12 87 0 12 -6 20 -5 24 1 4
6 11 8 16 5 5 -4 9 -2 9 4 0 11 65 10 76 -2 4 -4 14 -2 21 5 9 7 17 8 21 2 10
-13 32 -16 46 -5 7 6 25 5 49 -4 20 -7 37 -9 37 -4 0 5 12 4 26 -1 16 -6 32
-7 43 -1 18 10 75 8 104 -4 10 -4 17 -3 17 4 0 6 7 8 15 5 8 -4 12 -11 8 -17
-3 -6 -1 -7 6 -3 6 4 23 9 37 12 22 4 25 2 19 -16 -5 -14 -2 -20 10 -20 12 0
15 6 10 20 -7 24 13 28 22 5 5 -14 7 -14 24 1 16 14 21 15 48 1 17 -8 29 -12
28 -9 -2 8 7 12 28 12 8 0 12 -6 9 -13 -3 -9 4 -13 21 -13 14 0 25 6 25 13 0
7 9 13 21 13 11 0 18 -4 15 -9 -3 -5 1 -11 9 -15 9 -3 15 0 15 9 0 10 7 12 30
5 19 -5 28 -5 25 1 -4 5 12 9 38 8 24 -1 50 2 57 6 7 4 32 9 56 10 23 2 48 6
55 10 8 5 10 4 5 -3 -11 -18 3 -14 36 9 24 18 32 19 38 8 5 -7 6 -17 4 -21
-10 -15 16 -8 34 9 14 15 34 18 105 18 65 -1 87 2 87 12 0 7 9 13 20 13 11 0
19 -5 18 -12 -2 -7 6 -12 17 -12 11 0 19 6 17 13 -2 9 2 10 15 3 11 -7 24 -6
37 2 12 7 27 12 34 11 6 -2 17 -3 23 -4 5 0 8 -5 5 -10 -3 -5 1 -11 9 -15 8
-3 17 0 21 5 3 6 17 9 30 6 15 -3 28 1 33 10 7 13 11 13 30 2 18 -12 23 -12
30 -1 6 11 10 10 15 -4 6 -15 9 -16 16 -4 6 9 4 20 -3 30 -11 13 -10 13 6 1 9
-7 17 -11 17 -7 0 4 14 -1 31 -9 17 -9 34 -14 37 -10 7 6 8 10 11 36 0 5 5 7
11 4 5 -3 7 0 4 8 -5 15 39 27 99 27 16 0 35 7 43 15 9 8 24 15 35 15 13 0 18
4 13 12 -5 7 -2 9 7 6 16 -6 57 12 58 25 1 8 8 7 30 -1 8 -3 17 0 19 6 2 7 8
9 14 6 7 -5 9 4 6 22 -3 23 2 34 27 54 16 14 24 17 17 8 -8 -9 -9 -19 -4 -22
6 -3 13 5 16 19 4 14 14 25 24 26 13 0 12 2 -4 9 -34 13 -37 29 -10 42 14 6
26 16 26 21 0 6 3 7 6 4 8 -8 35 27 52 66 14 33 15 40 3 33 -10 -7 -9 20 2 30
3 4 13 1 22 -6 13 -10 15 -9 15 9 0 12 7 24 16 28 12 4 14 14 9 40 -4 24 -3
33 4 28 19 -11 33 5 19 23 -10 12 -10 14 0 8 9 -5 12 2 12 27 0 19 7 40 15 47
8 7 12 16 9 21 -3 5 1 9 8 9 11 0 10 2 0 9 -11 7 -11 9 2 14 9 4 16 1 16 -5 0
-6 3 -8 6 -5 4 4 1 13 -5 21 -7 8 -10 20 -6 26 3 5 -2 10 -12 10 -17 1 -17 1
1 15 10 7 15 18 11 24 -3 6 -2 11 2 11 22 0 233 202 310 295 122 151 226 371
268 572 53 259 62 695 46 2428 -8 962 -12 1169 -26 1265 -47 335 -167 596
-380 818 -159 168 -420 300 -705 356 -189 37 -274 39 -1725 40 -781 1 -1467 0
-1525 -1z m1227 -517 c-4 -11 -1 -13 11 -9 15 6 15 5 3 -10 -17 -22 -7 -22 14
0 20 19 179 27 208 9 12 -8 23 -7 38 2 12 8 19 10 16 5 -3 -4 32 -9 76 -10
121 -3 167 -7 167 -16 0 -4 16 -5 36 -1 21 4 35 3 31 -2 -3 -5 9 -8 26 -8 18
1 37 -2 42 -6 11 -9 87 -6 102 3 5 4 19 -2 30 -12 12 -12 32 -18 51 -17 17 1
33 -3 36 -10 2 -6 15 -9 29 -7 14 3 35 0 47 -7 15 -8 20 -8 16 -1 -4 6 -3 11
3 11 5 0 11 -4 13 -9 2 -5 12 -11 23 -13 11 -1 23 -7 27 -12 3 -5 20 -9 37 -9
16 0 28 -4 25 -9 -3 -4 3 -8 13 -8 15 0 16 -2 3 -11 -12 -8 -9 -9 13 -5 20 5
29 2 32 -9 16 -50 14 -48 32 -34 12 10 14 10 9 2 -4 -8 -2 -13 4 -13 6 0 8 -4
5 -10 -3 -5 -1 -10 4 -10 6 0 11 7 11 15 0 19 7 18 50 -5 30 -16 32 -19 13
-20 -13 0 -23 4 -23 8 0 5 -7 9 -15 9 -20 0 -19 -7 3 -23 10 -8 12 -13 5 -14
-7 0 -27 -9 -45 -21 -38 -24 -34 -23 82 24 47 19 130 50 185 67 140 46 252
100 307 149 41 37 88 54 88 33 0 -13 -49 -130 -78 -187 -13 -27 -127 -201
-252 -385 -294 -434 -437 -652 -450 -685 -6 -15 -20 -41 -31 -57 -12 -16 -18
-32 -15 -36 6 -5 67 7 109 23 12 5 17 2 17 -12 0 -18 6 -20 63 -17 34 2 75 8
90 13 51 20 53 11 5 -19 -60 -37 -67 -50 -29 -50 16 0 33 -5 36 -11 7 -10 59
-6 110 8 11 3 -1 -11 -28 -31 -52 -41 -53 -56 -3 -56 19 0 48 -3 65 -6 31 -6
31 -7 14 -27 -18 -19 -17 -20 7 -14 14 3 47 9 74 13 58 8 56 -5 -5 -36 -21
-11 -39 -24 -39 -29 0 -10 3 -11 104 -48 38 -14 103 -43 144 -65 71 -37 77
-39 89 -22 7 10 13 26 13 35 0 10 3 24 6 33 4 12 0 16 -15 16 -28 0 -27 14 4
55 25 32 31 49 40 108 3 22 -2 30 -21 39 -13 6 -24 14 -24 18 0 18 84 100 102
100 15 0 18 -4 13 -17 -4 -10 -10 -27 -13 -37 -5 -20 4 -20 66 -1 32 11 29
-15 -8 -50 -16 -16 -30 -32 -30 -37 0 -15 28 -8 34 8 3 8 10 13 15 9 12 -7
-37 -105 -56 -112 -17 -7 -17 -30 0 -36 6 -2 19 -1 27 3 29 14 90 21 90 10 0
-5 -8 -10 -17 -10 -24 -1 -77 -45 -70 -57 4 -6 -5 -15 -18 -21 -49 -22 -19
-48 37 -32 57 17 57 -7 -1 -34 -52 -24 -53 -24 -30 -37 13 -7 37 -15 53 -18
40 -9 43 -27 6 -39 -16 -6 -30 -15 -30 -19 0 -4 22 -23 49 -42 45 -30 106 -88
106 -101 0 -3 13 -19 28 -35 44 -48 45 -69 2 -131 -37 -54 -86 -98 -135 -124
-21 -11 -19 -6 13 28 43 49 51 94 15 85 -13 -3 -32 -14 -43 -23 -11 -10 -36
-20 -57 -24 -20 -4 -38 -12 -41 -20 -9 -22 -206 -66 -270 -60 -54 5 -139 25
-152 36 -13 11 -45 10 -45 -2 0 -5 9 -10 19 -10 11 0 23 -4 26 -10 12 -19 140
-50 239 -57 98 -7 100 -7 46 -14 -162 -22 -337 49 -478 193 -71 72 -81 84
-118 143 -17 27 -17 29 -1 16 27 -22 31 -6 8 32 -11 19 -21 43 -21 53 0 11 -9
34 -20 51 -11 18 -17 39 -14 47 3 7 -2 20 -10 29 -9 9 -16 22 -16 31 0 9 -24
22 -71 37 -59 19 -72 20 -79 8 -6 -9 -32 -14 -82 -15 -40 -1 -98 -9 -129 -18
-97 -26 -227 -94 -279 -144 -44 -43 -51 -57 -89 -176 -38 -119 -39 -130 -26
-156 8 -16 19 -31 24 -34 14 -9 63 20 94 56 26 29 33 32 100 35 95 4 148 19
201 57 58 41 83 74 110 144 22 54 24 57 57 56 118 -3 172 -120 115 -246 -28
-61 -120 -153 -183 -183 -29 -14 -32 -19 -22 -32 10 -12 10 -16 -2 -23 -18
-12 2 -34 34 -36 41 -3 78 -16 74 -28 -2 -6 -17 -18 -33 -26 -194 -97 -251
-150 -338 -315 -21 -38 -61 -105 -89 -147 -40 -61 -54 -75 -64 -66 -11 8 -25
6 -58 -11 -61 -30 -97 -35 -187 -22 -120 17 -150 38 -109 75 10 9 29 37 42 63
15 30 47 65 87 96 34 27 67 57 72 67 16 29 12 50 -9 50 -11 0 -22 4 -25 9 -7
11 -67 20 -86 12 -9 -3 -2 -8 19 -11 61 -9 44 -26 -60 -58 l-101 -32 -94 32
c-87 31 -112 49 -81 61 6 3 3 6 -9 6 -23 1 -84 -26 -84 -37 0 -18 40 -64 78
-92 24 -17 55 -49 70 -71 15 -22 40 -56 56 -75 36 -43 26 -57 -53 -81 -77 -23
-184 -23 -244 1 -27 10 -50 16 -53 13 -9 -9 128 -303 169 -362 l20 -30 -32 30
c-36 33 -81 121 -136 265 -19 51 -59 129 -88 174 -29 44 -75 126 -101 181 -26
54 -61 116 -77 137 -32 40 -140 116 -201 141 -44 19 -52 42 -11 34 15 -3 34
-1 42 3 9 4 28 13 44 21 29 13 37 39 12 39 -8 0 -15 4 -15 8 0 5 -21 23 -47
40 -60 39 -145 119 -162 152 -6 14 -19 38 -28 54 -9 17 -18 48 -20 70 -6 49
18 84 86 127 71 46 84 41 125 -44 41 -86 113 -160 172 -176 22 -6 77 -11 123
-11 l83 0 49 -50 c51 -53 82 -62 99 -31 20 38 9 87 -44 206 -61 134 -88 167
-186 225 -74 44 -142 65 -250 80 -41 5 -91 12 -110 15 -22 4 -49 0 -72 -9 -42
-18 -80 -54 -72 -68 4 -6 -11 -28 -32 -49 -26 -26 -35 -42 -27 -47 15 -10 5
-56 -18 -81 -25 -26 -24 -34 3 -25 52 16 -170 -210 -265 -270 -96 -61 -158
-79 -299 -84 -108 -4 -137 -1 -195 16 -37 12 -83 33 -102 47 -40 29 -53 32
-45 10 7 -17 -46 -165 -59 -165 -4 0 -4 28 0 63 4 34 8 79 8 100 0 29 4 37 18
37 17 0 17 1 2 17 -33 33 -95 120 -95 134 0 21 122 142 197 196 52 37 63 49
48 51 -31 5 -75 24 -75 32 0 4 15 10 33 13 17 3 46 11 62 17 l30 12 -61 28
c-86 39 -97 64 -18 41 20 -5 40 -4 59 3 l28 12 -46 49 c-53 56 -58 70 -22 61
14 -3 36 -9 50 -12 38 -9 32 15 -15 61 -46 44 -52 75 -17 75 13 0 28 -5 35
-12 9 -9 12 -9 12 1 0 7 -13 25 -29 41 -16 16 -31 36 -34 45 -9 22 26 19 48
-5 29 -32 38 -24 33 30 l-5 50 33 0 c22 0 34 -5 34 -14 0 -7 7 -20 16 -27 29
-24 36 -59 23 -111 -14 -51 -15 -46 40 -145 31 -55 40 -62 79 -58 40 3 182 54
182 64 0 3 -23 19 -50 36 -28 16 -50 33 -50 38 0 5 35 6 78 2 56 -5 73 -3 62
4 -24 17 6 31 67 31 89 0 108 19 48 47 -51 24 -43 35 21 27 40 -5 58 -3 64 6
6 9 13 9 28 1 11 -6 28 -11 38 -11 26 0 1 24 -68 66 -32 20 -58 38 -56 40 5 4
153 -43 181 -57 21 -12 21 -4 1 45 -7 17 -4 17 24 -4 22 -16 39 -21 64 -18 18
3 43 2 56 -3 28 -11 28 -1 0 48 -52 94 -483 728 -626 923 -83 112 -212 343
-212 378 0 22 30 12 80 -27 83 -66 147 -97 331 -159 175 -60 287 -110 406
-183 35 -21 63 -34 63 -28 0 5 -4 9 -8 9 -5 0 -22 11 -38 25 -16 14 -35 25
-42 25 -7 0 -10 5 -7 10 5 8 11 7 21 -1 8 -6 14 -8 14 -4 0 4 6 3 13 -3 14
-12 79 -4 71 9 -3 5 2 9 10 9 8 0 18 9 21 20 4 11 10 18 15 15 4 -3 10 2 14
10 3 8 2 15 -3 15 -4 0 -8 7 -8 15 0 10 4 12 10 6 7 -7 17 -1 29 15 11 13 25
24 32 24 7 0 18 11 24 24 8 17 17 23 30 19 14 -3 22 1 26 14 3 10 27 35 53 54
50 37 89 56 78 39 -3 -6 -1 -10 4 -10 6 0 11 4 11 9 0 4 15 8 33 8 17 0 39 3
47 6 28 10 75 18 122 20 25 1 49 5 53 9 4 4 13 4 20 2 7 -3 16 -1 19 5 4 6 13
8 21 4 8 -3 15 0 15 6 0 15 33 14 49 -1 7 -7 12 -8 11 -3 -4 19 0 25 16 25 10
0 14 -6 11 -14z m1967 -258 c3 -13 13 -84 22 -158 33 -272 3 -639 -66 -805 -4
-11 -15 -41 -24 -66 -16 -44 -85 -136 -86 -113 0 5 11 34 26 63 33 70 98 313
114 429 13 90 8 526 -6 630 -6 44 11 62 20 20z m-3689 -315 c0 -252 3 -325 17
-400 24 -124 72 -271 120 -367 22 -43 38 -80 35 -82 -13 -14 -117 130 -117
163 0 6 -5 15 -11 18 -7 5 -8 -4 -4 -28 5 -26 3 -36 -9 -40 -9 -4 -16 -2 -16
3 0 5 -7 7 -15 4 -10 -4 -15 0 -15 11 0 9 4 14 9 10 5 -3 12 -1 16 5 3 5 -2
10 -12 10 -11 0 -19 8 -21 20 -1 11 -2 26 -3 33 0 6 2 22 5 35 3 15 0 25 -10
29 -10 4 -12 9 -4 18 6 7 7 21 3 30 -5 15 -3 17 11 12 15 -6 17 -3 12 18 -34
135 -45 385 -26 595 8 83 28 210 34 210 1 0 1 -138 1 -307z m2621 -1378 c4
-28 2 -56 -6 -75 -16 -39 -69 -85 -115 -100 -53 -17 -149 -8 -183 17 -28 21
-42 53 -22 53 6 0 18 7 26 15 21 21 41 19 47 -4 3 -13 17 -22 40 -26 47 -9
111 25 128 69 17 45 52 96 66 96 6 0 15 -20 19 -45z m-1501 -46 c9 -16 30 -39
48 -49 34 -21 102 -27 112 -10 9 15 65 12 65 -3 0 -20 -40 -54 -84 -72 -70
-30 -154 1 -199 72 -25 40 -46 110 -30 100 5 -3 15 -2 23 3 20 12 47 -5 65
-41z m-445 -409 c0 -5 14 -10 30 -10 17 0 30 -4 30 -9 0 -5 10 -11 23 -13 15
-2 23 -11 25 -30 2 -16 11 -30 22 -33 11 -3 27 -22 36 -42 17 -34 17 -36 -10
-90 -15 -31 -26 -56 -24 -57 2 0 13 -6 24 -13 12 -6 32 -9 44 -6 20 5 21 3 15
-31 -8 -41 -6 -42 35 -21 30 15 30 15 30 -14 0 -16 5 -33 10 -36 6 -3 10 -15
10 -25 0 -16 7 -14 51 16 28 19 55 34 60 34 14 0 11 -16 -6 -30 -12 -10 -13
-15 -4 -21 10 -6 10 -11 0 -23 -19 -23 -6 -20 39 10 22 15 43 25 45 22 3 -3
-11 -22 -30 -42 -41 -44 -42 -48 -12 -61 16 -7 30 -6 50 3 39 19 44 8 13 -28
-14 -17 -26 -38 -26 -47 0 -14 3 -14 24 1 33 21 42 4 19 -34 -13 -23 -15 -32
-5 -42 7 -7 12 -31 12 -55 0 -30 4 -43 14 -43 23 0 46 -118 46 -236 0 -92 2
-105 15 -94 21 18 35 3 35 -38 0 -42 13 -71 24 -53 12 19 26 12 26 -14 0 -13
6 -42 14 -62 8 -21 17 -59 21 -85 7 -55 20 -62 30 -18 13 61 27 33 70 -145 9
-38 21 -79 27 -90 5 -11 -5 -4 -23 15 l-32 35 24 -44 c29 -53 83 -117 112
-133 21 -11 21 -11 4 15 -32 50 -78 179 -84 240 -3 34 -2 59 2 55 4 -4 33 -58
64 -119 56 -113 80 -141 82 -97 0 13 4 32 8 43 6 15 12 5 29 -50 12 -39 24
-87 28 -108 3 -21 15 -48 26 -60 l19 -22 -5 40 c-14 109 -17 193 -7 199 11 7
15 -4 31 -84 10 -52 25 -90 32 -80 2 3 13 19 25 36 12 17 25 47 28 67 4 21 12
34 19 31 15 -6 28 18 57 106 l24 75 5 -65 c6 -64 6 -64 19 -35 7 17 22 64 33
105 23 86 30 97 47 76 11 -13 16 -12 37 13 14 17 24 42 24 59 0 45 16 47 32 6
l15 -36 24 68 c21 59 28 69 46 67 20 -2 23 4 29 47 4 30 12 50 19 50 14 0 25
31 25 71 0 15 9 46 19 70 10 24 22 73 25 109 9 84 14 100 33 100 13 0 15 9 9
56 -6 54 -6 56 15 51 18 -5 20 -2 15 16 -18 66 -19 72 -5 60 19 -18 30 -16 27
5 -2 9 3 16 10 14 16 -3 15 3 -3 38 -17 32 -14 36 15 20 17 -9 18 -8 13 7 -7
17 -5 17 21 0 39 -26 41 -17 5 27 -35 42 -32 56 8 35 45 -22 46 -22 39 -10 -6
9 7 16 17 9 2 -2 11 3 20 10 9 8 25 10 41 6 22 -5 26 -3 26 14 0 17 9 21 50
27 43 6 50 10 50 30 0 18 4 21 25 17 30 -5 31 3 5 59 -21 47 -26 89 -11 89 16
0 81 66 81 82 0 22 22 37 61 42 24 3 34 9 33 20 -3 27 27 19 138 -39 104 -54
136 -65 123 -45 -3 6 3 10 15 10 14 0 53 -32 109 -87 69 -70 95 -105 129 -173
22 -47 46 -105 51 -130 l10 -45 -23 26 c-13 15 -33 32 -45 38 -19 11 -22 9
-27 -17 -6 -29 -6 -29 -74 -26 -62 2 -67 1 -63 -17 5 -17 1 -17 -40 6 -38 22
-195 60 -205 50 -2 -2 25 -32 60 -67 119 -119 199 -252 243 -404 48 -165 57
-414 15 -422 -13 -2 -14 12 -12 86 4 90 -10 172 -30 172 -5 0 -33 16 -60 36
-51 38 -67 40 -48 5 6 -12 8 -21 5 -21 -4 0 -63 38 -133 84 -122 80 -231 173
-264 226 -22 34 -32 20 -19 -27 6 -21 14 -85 17 -143 7 -121 -9 -212 -53 -292
-25 -47 -183 -208 -203 -208 -6 0 -5 11 0 26 6 15 -45 -30 -125 -113 -169
-173 -215 -207 -107 -79 46 53 88 109 93 124 7 18 5 61 -6 145 -8 65 -15 126
-15 135 0 28 -16 0 -34 -63 -22 -73 -66 -161 -116 -235 -40 -59 -192 -211
-250 -250 -19 -13 -59 -45 -88 -72 -94 -84 -144 -79 -309 33 -147 99 -206 156
-248 239 -19 36 -34 58 -34 50 0 -8 6 -24 14 -34 20 -27 19 -42 -2 -25 -34 29
-85 123 -119 222 -54 155 -56 160 -65 145 -5 -7 -9 -38 -9 -69 0 -31 -9 -82
-20 -114 -11 -32 -20 -66 -20 -76 0 -27 55 -125 111 -198 l51 -66 -64 66 c-36
36 -104 114 -151 173 -48 60 -87 106 -87 104 0 -2 4 -18 9 -36 5 -17 7 -32 4
-32 -3 0 -38 33 -78 73 -120 123 -161 240 -152 437 3 63 9 129 12 145 6 27 1
23 -54 -37 -37 -40 -93 -86 -139 -114 -150 -92 -244 -157 -284 -196 -44 -43
-60 -46 -28 -5 14 17 17 28 9 32 -18 12 -34 -14 -36 -58 -1 -23 -5 -65 -9 -93
-4 -30 -2 -59 4 -71 6 -11 7 -25 2 -33 -7 -11 -13 -5 -27 25 -14 31 -18 66
-18 160 0 136 14 191 90 352 57 122 105 192 192 284 40 42 70 79 67 82 -7 7
-98 -20 -138 -40 -16 -8 -43 -16 -60 -18 -17 -1 -50 -8 -73 -15 -24 -7 -49 -9
-60 -5 -10 5 -21 9 -25 9 -3 1 -10 4 -14 8 -4 4 -20 -2 -36 -13 -35 -25 -42
-21 -28 16 6 15 8 42 4 60 -6 32 22 105 46 120 5 3 10 12 10 18 0 7 -11 -1
-24 -18 -13 -16 -35 -43 -49 -58 -33 -39 -92 -161 -106 -222 -7 -28 -13 -95
-15 -150 -3 -90 -5 -100 -22 -100 -15 0 -20 9 -22 45 -5 68 17 199 42 255 62
136 240 372 329 436 37 28 34 17 -10 -33 l-37 -43 39 37 c53 49 153 108 184
108 14 1 55 16 91 35 70 37 80 41 80 25z m1380 -829 c0 -49 -29 -87 -78 -101
-64 -17 -213 -23 -273 -11 -68 14 -90 36 -96 96 -7 54 10 61 30 13 25 -59 37
-63 183 -63 127 0 133 1 159 25 15 14 33 37 41 53 20 38 34 34 34 -12z"/>
<path d="M3155 4938 c22 -113 180 -408 218 -408 14 0 6 24 -19 58 -24 31 -25
33 -5 23 11 -7 21 -8 22 -4 6 46 -24 146 -66 219 -25 42 -96 113 -135 134 -21
11 -22 11 -15 -22z"/>
<path d="M4511 4946 c-7 -9 -21 -16 -29 -16 -29 0 -130 -118 -153 -179 -28
-75 -35 -121 -19 -121 9 0 8 -7 -4 -25 -40 -61 -3 -61 54 1 25 28 39 51 36 60
-3 9 7 32 23 52 53 69 142 289 92 228z"/>
<path d="M4095 4860 c-97 -125 -187 -230 -221 -257 l-39 -31 -56 52 c-31 28
-73 74 -95 102 -126 164 -135 172 -148 138 -10 -27 30 -77 200 -251 58 -60 87
-83 105 -83 24 0 58 33 257 248 32 35 53 86 44 110 -7 19 -15 14 -47 -28z"/>
<path d="M1847 4038 c10 -11 38 -32 63 -47 40 -23 57 -26 161 -30 84 -2 133 1
179 13 79 20 160 56 141 63 -7 3 -16 1 -20 -5 -3 -5 -53 -20 -110 -32 l-104
-23 -88 22 c-49 11 -92 20 -96 19 -5 0 -21 5 -38 12 -16 7 -47 16 -68 20 -37
7 -38 7 -20 -12z"/>
</g>
</svg>
